Coordinates
version=1
nRows=13
nColumns=36
inDegrees=yes

Units are S.I. units (second, meters, Newtons, ...)
If the header above contains a line with 'inDegrees', this indicates whether rotational values are in degrees (yes) or radians (no).

endheader
time	pelvis_tilt	pelvis_list	pelvis_rotation	pelvis_tx	pelvis_ty	pelvis_tz	hip_flexion_r	hip_adduction_r	hip_rotation_r	knee_angle_r	knee_angle_r_beta	ankle_angle_r	subtalar_angle_r	mtp_angle_r	hip_flexion_l	hip_adduction_l	hip_rotation_l	knee_angle_l	knee_angle_l_beta	ankle_angle_l	subtalar_angle_l	mtp_angle_l	lumbar_extension	lumbar_bending	lumbar_rotation	arm_flex_r	arm_add_r	arm_rot_r	elbow_flex_r	pro_sup_r	arm_flex_l	arm_add_l	arm_rot_l	elbow_flex_l	pro_sup_l
      1.50833330	    -21.61418457	      1.34160766	     -0.59284679	     -1.02509789	      1.22923759	     -0.05705461	     42.09182008	     -4.33122880	     -1.30366342	     34.56989367	      0.60335847	     16.29520953	     -9.43832554	     -7.49999987	     42.99614673	     -3.07451646	     -4.43624580	     36.78206269	      0.64196810	     15.22294785	     -5.93390786	     -7.49999987	    -26.87229874	      1.08173338	      2.88049994	    -20.66049936	    -13.60489703	      5.47961922	     52.46364385	     66.22965845	    -26.19422374	    -11.37186144	     -9.86167840	     38.99653263	     55.75177472
      1.51250000	    -21.69027488	      1.27502968	     -0.67151135	     -1.02322341	      1.22530923	     -0.05725172	     42.52083643	     -4.25737220	     -1.27111369	     35.34018413	      0.61680257	     16.77397588	     -9.58575973	     -7.49999987	     43.44632553	     -3.28205058	     -4.50768913	     37.46886921	      0.65395513	     15.53086876	     -6.17203651	     -7.49999987	    -27.12927186	      1.20198678	      2.68920934	    -20.26077677	    -13.65770177	      5.60691672	     52.11386774	     66.33086999	    -25.68424100	    -10.98063360	    -10.21208748	     38.14640509	     55.67703378
      1.51666670	    -21.96794977	      1.31541169	     -0.72379819	     -1.02408659	      1.22427843	     -0.05757928	     43.19566170	     -4.27185750	     -1.13391549	     36.07963663	      0.62970845	     17.05961354	     -9.86885084	     -7.49999987	     44.05006500	     -3.32893670	     -4.61433696	     38.14898284	      0.66582536	     15.75564243	     -6.50805720	     -7.49999987	    -27.29654629	      1.25417924	      2.35466444	    -19.63959467	    -13.77729540	      5.82163041	     51.64411370	     69.18642917	    -25.27348405	    -10.65241210	    -10.43789600	     37.68846517	     54.44537445
      1.52083330	    -22.00311949	      1.28245120	     -0.80433012	     -1.02611483	      1.22203694	     -0.05713185	     43.73841184	     -4.19755742	     -0.94220272	     36.90579106	      0.64412757	     17.59779998	     -9.79509223	     -7.49999987	     44.56613158	     -3.49051898	     -4.62556883	     38.86212301	      0.67827200	     16.02102781	     -6.72600125	     -7.49999987	    -27.76859894	      1.26887676	      2.22554863	    -19.25479580	    -13.68070747	      5.50644830	     51.55166992	     68.83799734	    -24.71542366	    -10.45200073	    -10.60861376	     37.35759561	     54.52478776
      1.52500000	    -22.08356637	      1.30079575	     -0.84654450	     -1.02483409	      1.22356352	     -0.05743817	     44.05902963	     -4.16420126	     -0.71683082	     37.43129238	      0.65329930	     17.80518470	     -9.72794686	     -7.49999987	     44.79563677	     -3.52823049	     -4.61892671	     39.16981768	      0.68364229	     16.01606933	     -6.90505413	     -7.49999987	    -28.13143220	      1.23579097	      2.24475433	    -18.78127463	    -13.75381624	      5.62715314	     51.18369202	     68.42283310	    -24.02080943	    -10.34156770	    -10.65158861	     36.83553647	     54.65856239
      1.52916670	    -22.23238653	      1.28259829	     -0.89083951	     -1.02604850	      1.22182569	     -0.05680723	     44.49669292	     -4.09129806	     -0.56272486	     37.89766475	      0.66143903	     18.07366645	     -9.62838336	     -7.49999987	     45.21540265	     -3.64663225	     -4.71080158	     39.56938876	      0.69061612	     16.12519878	     -7.09171648	     -7.49999987	    -28.60443041	      1.19755953	      2.14956002	    -18.08094272	    -13.82163702	      5.86614040	     50.77087542	     67.99378207	    -23.30443315	    -10.18125165	    -10.66324431	     36.49661249	     54.79160881
      1.53333330	    -22.37007455	      1.26574049	     -0.95888587	     -1.02620828	      1.21797763	     -0.05680609	     45.08058851	     -4.00736458	     -0.42835490	     38.61350264	      0.67393276	     18.22015735	     -9.85099575	     -7.49999987	     45.65020406	     -3.72939250	     -4.67347447	     40.07724190	      0.69947983	     16.23642474	     -7.34283004	     -7.49999987	    -28.92794417	      1.19978504	      1.91651540	    -17.39419417	    -13.85964068	      6.18480517	     50.31659629	     67.80383134	    -22.64607816	    -10.04013735	    -10.64109965	     35.89116204	     54.73645295
      1.53750000	    -22.39870386	      1.35120572	     -0.99201699	     -1.02411354	      1.21578390	     -0.05706827	     45.52326190	     -4.04671576	     -0.18497192	     39.41322463	      0.68789054	     18.53468296	     -9.94262867	     -7.49999987	     45.94701880	     -3.74167241	     -4.76500771	     40.75134006	      0.71124506	     16.55554615	     -7.56522553	     -7.49999987	    -29.25201895	      1.15705921	      1.57171406	    -16.85873838	    -13.80231153	      6.30201858	     49.93816673	     67.66976514	    -22.10646336	     -9.87622960	    -10.54406567	     35.40822254	     54.64790546
      1.54166670	    -22.27433185	      1.39229602	     -0.93011706	     -1.02417053	      1.21617980	     -0.05679655	     45.68950692	     -4.08633621	      0.02045750	     40.01144574	      0.69833147	     18.77623342	    -10.08319308	     -7.49999987	     46.06144073	     -3.70609985	     -4.75192528	     41.32289035	      0.72122049	     16.72456564	     -7.84036391	     -7.49999987	    -29.79713617	      1.19782226	      1.18426528	    -16.30034017	    -13.72081835	      6.33768475	     49.65770065	     67.26085456	    -21.49411153	     -9.80385269	    -10.46869196	     35.07874548	     54.71196630
      1.54583330	    -22.10538933	      1.39275371	     -0.94785531	     -1.02224603	      1.21392954	     -0.05801376	     45.75596795	     -4.09699604	      0.12701985	     40.59679553	      0.70854775	     19.10683397	    -10.08700538	     -7.49999987	     46.09823399	     -3.70287114	     -4.70477199	     41.93228116	      0.73185637	     17.07002716	     -7.90560770	     -7.49999987	    -30.24379564	      1.20738368	      0.93839354	    -15.80533677	    -13.70179647	      6.40612658	     49.21835221	     67.14177699	    -20.85482232	     -9.69770358	    -10.16280892	     34.32928822	     54.58812859
      1.55000000	    -21.81761535	      1.48299158	     -0.79341159	     -1.02176672	      1.21163747	     -0.05918523	     45.69257198	     -4.30653854	      0.25858158	     41.18907183	      0.71888492	     19.59290138	    -10.17284085	     -7.49999987	     46.04520793	     -3.52144968	     -4.78414468	     42.51363364	      0.74200288	     17.40684500	     -8.01565280	     -7.49999987	    -30.90478328	      1.07437258	      0.46828435	    -15.26999241	    -13.47211568	      6.33861610	     48.81219135	     67.01417313	    -19.61450094	     -9.56997116	    -10.07575084	     32.90493994	     54.40625241
      1.55416670	    -21.89496388	      1.48630022	     -0.75080729	     -1.02208240	      1.20907427	     -0.05834962	     46.09277604	     -4.37763165	      0.28430967	     41.89134350	      0.73114187	     19.89861407	    -10.41294494	     -7.49999987	     46.52591310	     -3.52329846	     -4.72980643	     43.29172451	      0.75558313	     17.67692978	     -8.15544951	     -7.49999987	    -31.23715525	      1.12992232	      0.27654572	    -14.82006935	    -13.53779419	      6.44015565	     48.59617275	     67.73668344	    -18.32205981	    -10.06031938	     -8.31228202	     31.67616081	     52.99275801
      1.55833330	    -21.86151693	      1.52247882	     -0.69738310	     -1.02114883	      1.20823386	     -0.05936721	     46.26726905	     -4.48629018	      0.32406825	     42.41513946	      0.74028384	     20.27458895	    -10.49200160	     -7.49999987	     46.81275256	     -3.46826055	     -4.68336540	     43.96273948	      0.76729455	     17.88365277	     -8.24353813	     -7.49999987	    -31.81218254	      1.14406076	     -0.19324212	    -14.17255956	    -13.56571814	      6.53330634	     48.16733296	     67.58099611	    -17.28837448	    -10.26950293	     -7.56928871	     30.76017783	     52.95063451
